<mxfile host="app.diagrams.net" modified="2022-07-08T13:21:06.774Z" agent="5.0 (Windows NT 10.0; Win64; x64) AppleWebKit/537.36 (KHTML, like Gecko) Chrome/103.0.0.0 Safari/537.36" etag="cyhJ8Ngene8au0LPszOf" version="20.0.4" type="github">
  <diagram id="1_BmlzmEA8XaAINV2RN7" name="Page-1">
    <mxGraphModel dx="1673" dy="944" grid="1" gridSize="10" guides="1" tooltips="1" connect="1" arrows="1" fold="1" page="1" pageScale="1" pageWidth="1654" pageHeight="2336" math="0" shadow="0">
      <root>
        <mxCell id="0" />
        <mxCell id="1" parent="0" />
        <mxCell id="ppvo_MQGxmZbfmex71Pp-3" style="edgeStyle=orthogonalEdgeStyle;rounded=0;orthogonalLoop=1;jettySize=auto;html=1;entryX=0.5;entryY=0;entryDx=0;entryDy=0;" parent="1" source="ppvo_MQGxmZbfmex71Pp-1" target="ppvo_MQGxmZbfmex71Pp-2" edge="1">
          <mxGeometry relative="1" as="geometry" />
        </mxCell>
        <mxCell id="ppvo_MQGxmZbfmex71Pp-1" value="Load Game" style="rounded=1;whiteSpace=wrap;html=1;" parent="1" vertex="1">
          <mxGeometry x="320" y="60" width="120" height="60" as="geometry" />
        </mxCell>
        <mxCell id="ppvo_MQGxmZbfmex71Pp-7" style="edgeStyle=orthogonalEdgeStyle;rounded=0;orthogonalLoop=1;jettySize=auto;html=1;entryX=0.5;entryY=0;entryDx=0;entryDy=0;" parent="1" source="ppvo_MQGxmZbfmex71Pp-2" target="ppvo_MQGxmZbfmex71Pp-22" edge="1">
          <mxGeometry relative="1" as="geometry">
            <mxPoint x="180" y="280" as="targetPoint" />
          </mxGeometry>
        </mxCell>
        <mxCell id="ppvo_MQGxmZbfmex71Pp-21" value="No" style="edgeLabel;html=1;align=center;verticalAlign=middle;resizable=0;points=[];" parent="ppvo_MQGxmZbfmex71Pp-7" vertex="1" connectable="0">
          <mxGeometry x="-0.2824" y="-2" relative="1" as="geometry">
            <mxPoint as="offset" />
          </mxGeometry>
        </mxCell>
        <mxCell id="ppvo_MQGxmZbfmex71Pp-25" style="edgeStyle=orthogonalEdgeStyle;rounded=0;orthogonalLoop=1;jettySize=auto;html=1;entryX=0.5;entryY=0;entryDx=0;entryDy=0;" parent="1" source="ppvo_MQGxmZbfmex71Pp-2" target="ppvo_MQGxmZbfmex71Pp-24" edge="1">
          <mxGeometry relative="1" as="geometry" />
        </mxCell>
        <mxCell id="ppvo_MQGxmZbfmex71Pp-26" value="Yes" style="edgeLabel;html=1;align=center;verticalAlign=middle;resizable=0;points=[];" parent="ppvo_MQGxmZbfmex71Pp-25" vertex="1" connectable="0">
          <mxGeometry x="0.1143" y="-3" relative="1" as="geometry">
            <mxPoint as="offset" />
          </mxGeometry>
        </mxCell>
        <mxCell id="ppvo_MQGxmZbfmex71Pp-2" value="Is Online?" style="rhombus;whiteSpace=wrap;html=1;" parent="1" vertex="1">
          <mxGeometry x="340" y="170" width="80" height="80" as="geometry" />
        </mxCell>
        <mxCell id="ppvo_MQGxmZbfmex71Pp-9" style="edgeStyle=orthogonalEdgeStyle;rounded=0;orthogonalLoop=1;jettySize=auto;html=1;" parent="1" source="ppvo_MQGxmZbfmex71Pp-4" target="ppvo_MQGxmZbfmex71Pp-5" edge="1">
          <mxGeometry relative="1" as="geometry" />
        </mxCell>
        <mxCell id="ppvo_MQGxmZbfmex71Pp-4" value="Create UI" style="rounded=1;whiteSpace=wrap;html=1;" parent="1" vertex="1">
          <mxGeometry x="100" y="330" width="180" height="40" as="geometry" />
        </mxCell>
        <mxCell id="ppvo_MQGxmZbfmex71Pp-10" style="edgeStyle=orthogonalEdgeStyle;rounded=0;orthogonalLoop=1;jettySize=auto;html=1;" parent="1" source="ppvo_MQGxmZbfmex71Pp-5" target="ppvo_MQGxmZbfmex71Pp-6" edge="1">
          <mxGeometry relative="1" as="geometry" />
        </mxCell>
        <mxCell id="ppvo_MQGxmZbfmex71Pp-5" value="Create Managers" style="rounded=1;whiteSpace=wrap;html=1;" parent="1" vertex="1">
          <mxGeometry x="100" y="400" width="180" height="40" as="geometry" />
        </mxCell>
        <mxCell id="ppvo_MQGxmZbfmex71Pp-12" style="edgeStyle=orthogonalEdgeStyle;rounded=0;orthogonalLoop=1;jettySize=auto;html=1;" parent="1" source="ppvo_MQGxmZbfmex71Pp-6" target="ppvo_MQGxmZbfmex71Pp-11" edge="1">
          <mxGeometry relative="1" as="geometry" />
        </mxCell>
        <mxCell id="ppvo_MQGxmZbfmex71Pp-6" value="Create Player" style="rounded=1;whiteSpace=wrap;html=1;" parent="1" vertex="1">
          <mxGeometry x="100" y="470" width="180" height="40" as="geometry" />
        </mxCell>
        <mxCell id="ppvo_MQGxmZbfmex71Pp-14" style="edgeStyle=orthogonalEdgeStyle;rounded=0;orthogonalLoop=1;jettySize=auto;html=1;" parent="1" source="ppvo_MQGxmZbfmex71Pp-11" target="ppvo_MQGxmZbfmex71Pp-13" edge="1">
          <mxGeometry relative="1" as="geometry" />
        </mxCell>
        <mxCell id="ppvo_MQGxmZbfmex71Pp-11" value="Initialize Player" style="rounded=1;whiteSpace=wrap;html=1;" parent="1" vertex="1">
          <mxGeometry x="100" y="540" width="180" height="40" as="geometry" />
        </mxCell>
        <mxCell id="ppvo_MQGxmZbfmex71Pp-18" style="edgeStyle=orthogonalEdgeStyle;rounded=0;orthogonalLoop=1;jettySize=auto;html=1;entryX=0.5;entryY=0;entryDx=0;entryDy=0;" parent="1" source="ppvo_MQGxmZbfmex71Pp-13" target="ppvo_MQGxmZbfmex71Pp-17" edge="1">
          <mxGeometry relative="1" as="geometry" />
        </mxCell>
        <mxCell id="ppvo_MQGxmZbfmex71Pp-13" value="Initialize UI" style="rounded=1;whiteSpace=wrap;html=1;" parent="1" vertex="1">
          <mxGeometry x="100" y="610" width="180" height="40" as="geometry" />
        </mxCell>
        <mxCell id="ppvo_MQGxmZbfmex71Pp-15" value="Game Start" style="rounded=1;whiteSpace=wrap;html=1;" parent="1" vertex="1">
          <mxGeometry x="370" y="1010" width="120" height="60" as="geometry" />
        </mxCell>
        <mxCell id="ppvo_MQGxmZbfmex71Pp-19" style="edgeStyle=orthogonalEdgeStyle;rounded=0;orthogonalLoop=1;jettySize=auto;html=1;entryX=0;entryY=0.5;entryDx=0;entryDy=0;" parent="1" source="ppvo_MQGxmZbfmex71Pp-17" target="ppvo_MQGxmZbfmex71Pp-15" edge="1">
          <mxGeometry relative="1" as="geometry" />
        </mxCell>
        <mxCell id="ppvo_MQGxmZbfmex71Pp-17" value="Load Player" style="rounded=1;whiteSpace=wrap;html=1;" parent="1" vertex="1">
          <mxGeometry x="100" y="684.5" width="180" height="40" as="geometry" />
        </mxCell>
        <mxCell id="ppvo_MQGxmZbfmex71Pp-23" style="edgeStyle=orthogonalEdgeStyle;rounded=0;orthogonalLoop=1;jettySize=auto;html=1;" parent="1" source="ppvo_MQGxmZbfmex71Pp-22" target="ppvo_MQGxmZbfmex71Pp-4" edge="1">
          <mxGeometry relative="1" as="geometry" />
        </mxCell>
        <mxCell id="ppvo_MQGxmZbfmex71Pp-22" value="Load Game Scene" style="rounded=1;whiteSpace=wrap;html=1;" parent="1" vertex="1">
          <mxGeometry x="100" y="260" width="180" height="40" as="geometry" />
        </mxCell>
        <mxCell id="ppvo_MQGxmZbfmex71Pp-29" style="edgeStyle=orthogonalEdgeStyle;rounded=0;orthogonalLoop=1;jettySize=auto;html=1;entryX=0.445;entryY=0.011;entryDx=0;entryDy=0;entryPerimeter=0;" parent="1" source="ppvo_MQGxmZbfmex71Pp-24" target="ppvo_MQGxmZbfmex71Pp-27" edge="1">
          <mxGeometry relative="1" as="geometry" />
        </mxCell>
        <mxCell id="ppvo_MQGxmZbfmex71Pp-31" value="No" style="edgeLabel;html=1;align=center;verticalAlign=middle;resizable=0;points=[];" parent="ppvo_MQGxmZbfmex71Pp-29" vertex="1" connectable="0">
          <mxGeometry x="-0.2619" y="-3" relative="1" as="geometry">
            <mxPoint as="offset" />
          </mxGeometry>
        </mxCell>
        <mxCell id="ppvo_MQGxmZbfmex71Pp-30" style="edgeStyle=orthogonalEdgeStyle;rounded=0;orthogonalLoop=1;jettySize=auto;html=1;" parent="1" source="ppvo_MQGxmZbfmex71Pp-24" target="ppvo_MQGxmZbfmex71Pp-28" edge="1">
          <mxGeometry relative="1" as="geometry" />
        </mxCell>
        <mxCell id="ppvo_MQGxmZbfmex71Pp-32" value="Yes" style="edgeLabel;html=1;align=center;verticalAlign=middle;resizable=0;points=[];" parent="ppvo_MQGxmZbfmex71Pp-30" vertex="1" connectable="0">
          <mxGeometry x="-0.0926" y="2" relative="1" as="geometry">
            <mxPoint as="offset" />
          </mxGeometry>
        </mxCell>
        <mxCell id="ppvo_MQGxmZbfmex71Pp-24" value="Is Server?" style="rhombus;whiteSpace=wrap;html=1;" parent="1" vertex="1">
          <mxGeometry x="540" y="260" width="80" height="80" as="geometry" />
        </mxCell>
        <mxCell id="ppvo_MQGxmZbfmex71Pp-27" value="StartClient" style="rounded=1;whiteSpace=wrap;html=1;" parent="1" vertex="1">
          <mxGeometry x="350" y="370" width="180" height="40" as="geometry" />
        </mxCell>
        <mxCell id="ppvo_MQGxmZbfmex71Pp-34" style="edgeStyle=orthogonalEdgeStyle;rounded=0;orthogonalLoop=1;jettySize=auto;html=1;" parent="1" source="ppvo_MQGxmZbfmex71Pp-28" target="ppvo_MQGxmZbfmex71Pp-33" edge="1">
          <mxGeometry relative="1" as="geometry" />
        </mxCell>
        <mxCell id="ppvo_MQGxmZbfmex71Pp-28" value="StartSever" style="rounded=1;whiteSpace=wrap;html=1;" parent="1" vertex="1">
          <mxGeometry x="660" y="370" width="180" height="40" as="geometry" />
        </mxCell>
        <mxCell id="ppvo_MQGxmZbfmex71Pp-36" style="edgeStyle=orthogonalEdgeStyle;rounded=0;orthogonalLoop=1;jettySize=auto;html=1;entryX=0.5;entryY=0;entryDx=0;entryDy=0;" parent="1" source="ppvo_MQGxmZbfmex71Pp-33" target="ppvo_MQGxmZbfmex71Pp-43" edge="1">
          <mxGeometry relative="1" as="geometry">
            <mxPoint x="750" y="530" as="targetPoint" />
          </mxGeometry>
        </mxCell>
        <mxCell id="ppvo_MQGxmZbfmex71Pp-51" style="edgeStyle=orthogonalEdgeStyle;rounded=0;orthogonalLoop=1;jettySize=auto;html=1;entryX=1;entryY=0.5;entryDx=0;entryDy=0;" parent="1" source="ppvo_MQGxmZbfmex71Pp-33" target="ppvo_MQGxmZbfmex71Pp-39" edge="1">
          <mxGeometry relative="1" as="geometry" />
        </mxCell>
        <mxCell id="ppvo_MQGxmZbfmex71Pp-33" value="Load Game Scene" style="rounded=1;whiteSpace=wrap;html=1;" parent="1" vertex="1">
          <mxGeometry x="660" y="450" width="180" height="40" as="geometry" />
        </mxCell>
        <mxCell id="ppvo_MQGxmZbfmex71Pp-42" style="edgeStyle=orthogonalEdgeStyle;rounded=0;orthogonalLoop=1;jettySize=auto;html=1;entryX=0.5;entryY=0;entryDx=0;entryDy=0;" parent="1" source="ppvo_MQGxmZbfmex71Pp-37" target="ppvo_MQGxmZbfmex71Pp-38" edge="1">
          <mxGeometry relative="1" as="geometry" />
        </mxCell>
        <mxCell id="ppvo_MQGxmZbfmex71Pp-37" value="Create UI" style="rounded=1;whiteSpace=wrap;html=1;" parent="1" vertex="1">
          <mxGeometry x="350" y="500" width="180" height="40" as="geometry" />
        </mxCell>
        <mxCell id="ppvo_MQGxmZbfmex71Pp-38" value="Create Managers" style="rounded=1;whiteSpace=wrap;html=1;" parent="1" vertex="1">
          <mxGeometry x="350" y="570" width="180" height="40" as="geometry" />
        </mxCell>
        <mxCell id="ppvo_MQGxmZbfmex71Pp-41" style="edgeStyle=orthogonalEdgeStyle;rounded=0;orthogonalLoop=1;jettySize=auto;html=1;" parent="1" source="ppvo_MQGxmZbfmex71Pp-39" target="ppvo_MQGxmZbfmex71Pp-37" edge="1">
          <mxGeometry relative="1" as="geometry" />
        </mxCell>
        <mxCell id="ppvo_MQGxmZbfmex71Pp-50" style="edgeStyle=orthogonalEdgeStyle;rounded=0;orthogonalLoop=1;jettySize=auto;html=1;entryX=0;entryY=0.25;entryDx=0;entryDy=0;exitX=1;exitY=0.5;exitDx=0;exitDy=0;" parent="1" source="ppvo_MQGxmZbfmex71Pp-39" target="ppvo_MQGxmZbfmex71Pp-45" edge="1">
          <mxGeometry relative="1" as="geometry">
            <Array as="points">
              <mxPoint x="530" y="480" />
              <mxPoint x="595" y="480" />
              <mxPoint x="595" y="540" />
            </Array>
          </mxGeometry>
        </mxCell>
        <mxCell id="ppvo_MQGxmZbfmex71Pp-39" value="Load Game Scene" style="rounded=1;whiteSpace=wrap;html=1;" parent="1" vertex="1">
          <mxGeometry x="350" y="430" width="180" height="40" as="geometry" />
        </mxCell>
        <mxCell id="ppvo_MQGxmZbfmex71Pp-43" value="Create Managers" style="rounded=1;whiteSpace=wrap;html=1;" parent="1" vertex="1">
          <mxGeometry x="860" y="530" width="180" height="40" as="geometry" />
        </mxCell>
        <mxCell id="ppvo_MQGxmZbfmex71Pp-48" style="edgeStyle=orthogonalEdgeStyle;rounded=0;orthogonalLoop=1;jettySize=auto;html=1;entryX=1;entryY=0.5;entryDx=0;entryDy=0;" parent="1" source="ppvo_MQGxmZbfmex71Pp-45" target="ppvo_MQGxmZbfmex71Pp-47" edge="1">
          <mxGeometry relative="1" as="geometry" />
        </mxCell>
        <mxCell id="ppvo_MQGxmZbfmex71Pp-53" style="edgeStyle=orthogonalEdgeStyle;rounded=0;orthogonalLoop=1;jettySize=auto;html=1;entryX=0.5;entryY=0;entryDx=0;entryDy=0;" parent="1" source="ppvo_MQGxmZbfmex71Pp-45" target="1mu3rg4Kh01-R_uzefGw-6" edge="1">
          <mxGeometry relative="1" as="geometry">
            <mxPoint x="750.0000000000005" y="609.9999999999998" as="targetPoint" />
          </mxGeometry>
        </mxCell>
        <mxCell id="ppvo_MQGxmZbfmex71Pp-45" value="CreatePlayer" style="rounded=1;whiteSpace=wrap;html=1;" parent="1" vertex="1">
          <mxGeometry x="660" y="530" width="180" height="40" as="geometry" />
        </mxCell>
        <mxCell id="oNx7VoYDwIHxQ-P58rqN-1" style="edgeStyle=orthogonalEdgeStyle;rounded=0;orthogonalLoop=1;jettySize=auto;html=1;entryX=0.5;entryY=0;entryDx=0;entryDy=0;" edge="1" parent="1" source="ppvo_MQGxmZbfmex71Pp-47" target="1mu3rg4Kh01-R_uzefGw-1">
          <mxGeometry relative="1" as="geometry" />
        </mxCell>
        <mxCell id="ppvo_MQGxmZbfmex71Pp-47" value="Create Player" style="rounded=1;whiteSpace=wrap;html=1;" parent="1" vertex="1">
          <mxGeometry x="350" y="640" width="180" height="40" as="geometry" />
        </mxCell>
        <mxCell id="ppvo_MQGxmZbfmex71Pp-56" value="Initialize UI" style="rounded=1;whiteSpace=wrap;html=1;" parent="1" vertex="1">
          <mxGeometry x="350" y="850" width="180" height="40" as="geometry" />
        </mxCell>
        <mxCell id="ppvo_MQGxmZbfmex71Pp-61" style="edgeStyle=orthogonalEdgeStyle;rounded=0;orthogonalLoop=1;jettySize=auto;html=1;entryX=1;entryY=0.5;entryDx=0;entryDy=0;" parent="1" source="ppvo_MQGxmZbfmex71Pp-58" target="ppvo_MQGxmZbfmex71Pp-60" edge="1">
          <mxGeometry relative="1" as="geometry">
            <Array as="points">
              <mxPoint x="620" y="690" />
              <mxPoint x="620" y="940" />
            </Array>
          </mxGeometry>
        </mxCell>
        <mxCell id="ppvo_MQGxmZbfmex71Pp-63" style="edgeStyle=orthogonalEdgeStyle;rounded=0;orthogonalLoop=1;jettySize=auto;html=1;entryX=1;entryY=0.5;entryDx=0;entryDy=0;" parent="1" source="ppvo_MQGxmZbfmex71Pp-58" target="ppvo_MQGxmZbfmex71Pp-15" edge="1">
          <mxGeometry relative="1" as="geometry">
            <Array as="points">
              <mxPoint x="750" y="1040" />
            </Array>
          </mxGeometry>
        </mxCell>
        <mxCell id="ppvo_MQGxmZbfmex71Pp-58" value="Load Player" style="rounded=1;whiteSpace=wrap;html=1;" parent="1" vertex="1">
          <mxGeometry x="660" y="670" width="180" height="40" as="geometry" />
        </mxCell>
        <mxCell id="1mu3rg4Kh01-R_uzefGw-9" style="edgeStyle=orthogonalEdgeStyle;rounded=0;orthogonalLoop=1;jettySize=auto;html=1;entryX=0.576;entryY=-0.022;entryDx=0;entryDy=0;entryPerimeter=0;" parent="1" source="ppvo_MQGxmZbfmex71Pp-60" target="ppvo_MQGxmZbfmex71Pp-15" edge="1">
          <mxGeometry relative="1" as="geometry" />
        </mxCell>
        <mxCell id="ppvo_MQGxmZbfmex71Pp-60" value="Load Player" style="rounded=1;whiteSpace=wrap;html=1;" parent="1" vertex="1">
          <mxGeometry x="350" y="920" width="180" height="40" as="geometry" />
        </mxCell>
        <mxCell id="1mu3rg4Kh01-R_uzefGw-1" value="Initialize Player" style="rounded=1;whiteSpace=wrap;html=1;" parent="1" vertex="1">
          <mxGeometry x="350" y="720" width="180" height="40" as="geometry" />
        </mxCell>
        <mxCell id="1mu3rg4Kh01-R_uzefGw-8" style="edgeStyle=orthogonalEdgeStyle;rounded=0;orthogonalLoop=1;jettySize=auto;html=1;" parent="1" source="1mu3rg4Kh01-R_uzefGw-6" target="ppvo_MQGxmZbfmex71Pp-58" edge="1">
          <mxGeometry relative="1" as="geometry" />
        </mxCell>
        <mxCell id="1mu3rg4Kh01-R_uzefGw-6" value="Initialize Player" style="rounded=1;whiteSpace=wrap;html=1;" parent="1" vertex="1">
          <mxGeometry x="660" y="600" width="180" height="40" as="geometry" />
        </mxCell>
      </root>
    </mxGraphModel>
  </diagram>
</mxfile>
